<?xml version="1.0" encoding="utf-8"?>
<!-- Generator: Adobe Illustrator 26.0.3, SVG Export Plug-In . SVG Version: 6.00 Build 0)  -->
<svg version="1.1" xmlns="http://www.w3.org/2000/svg" xmlns:xlink="http://www.w3.org/1999/xlink" x="0px" y="0px"
	 viewBox="0 0 283.5 113.4" style="enable-background:new 0 0 283.5 113.4;" xml:space="preserve">
<style type="text/css">
	.st0{fill:#FFFFFF;}
</style>
<g id="Laag_1">
</g>
<g id="Laag_2">
	<path class="st0" d="M84,68.5c-0.1,3.8-1.7,7.4-4.5,10c-2.7,2.5-6.1,3.9-9.8,3.9c-0.1,0-0.3,0-0.4,0l-12.1,0
		c-1.6,0-2.8-1.3-2.8-2.8s1.3-2.8,2.8-2.8h12.2c2.4,0,4.6-0.8,6.2-2.4c1.7-1.6,2.6-3.7,2.7-6s-0.8-4.5-2.4-6.1
		c-1.6-1.7-3.7-2.6-6-2.7l-0.6,0H31.6c-1.6,0-2.8-1.3-2.8-2.8s1.3-2.8,2.8-2.8h38c4.7,0.1,8.6-3.6,8.8-8.4c0.1-2.3-0.8-4.5-2.4-6.1
		s-3.7-2.6-6-2.7l-26.4,0c-1.6,0-2.8-1.3-2.8-2.8s1.3-2.8,2.8-2.8h26.5c3.9,0.1,7.4,1.7,10,4.5c2.6,2.8,4,6.4,3.9,10.2
		c-0.1,4.5-2.4,8.5-5.7,11.1C81.9,59.4,84.2,63.7,84,68.5z M71.2,45.2c0-1.5-1.2-2.8-2.8-2.8H31.6c-1.5,0-2.8,1.2-2.8,2.8
		s1.2,2.8,2.8,2.8h36.9C70,48,71.2,46.7,71.2,45.2z M71.2,68.1c0-1.5-1.2-2.8-2.8-2.8H44.6c-1.5,0-2.8,1.2-2.8,2.8s1.2,2.8,2.8,2.8
		h23.8C70,70.9,71.2,69.6,71.2,68.1z M39,68.1c0-1.5-1.2-2.8-2.8-2.8h-2.8c-1.5,0-2.8,1.2-2.8,2.8s1.2,2.8,2.8,2.8h2.8
		C37.7,70.9,39,69.6,39,68.1z M26,45.2c0-1.5-1.2-2.8-2.8-2.8h-2.8c-1.5,0-2.8,1.2-2.8,2.8s1.2,2.8,2.8,2.8h2.8
		C24.8,48,26,46.7,26,45.2z M50.1,76.7c-1.6,0-2.8,1.3-2.8,2.8c0,1.6,1.3,2.8,2.8,2.8s2.8-1.3,2.8-2.8C53,78,51.7,76.7,50.1,76.7z
		 M36.5,31c-1.6,0-2.8,1.3-2.8,2.8s1.3,2.8,2.8,2.8s2.8-1.3,2.8-2.8S38.1,31,36.5,31z"/>
	<g>
		<path class="st0" d="M103.8,66.9v2c0,1.3-1,2.2-2.2,2.2c-1.3,0-2.2-1-2.2-2.2V33.2c0-1.2,0.9-2.2,2.2-2.2c1.2,0,2.2,1,2.2,2.2
			v13.5c2.5-2.7,6.1-4.4,10.2-4.4c8,0,14.1,6.4,14.1,14.5c0,8.1-6.1,14.5-14.1,14.5C109.9,71.2,106.3,69.6,103.8,66.9z M123.7,56.8
			c0-5.9-4.4-10.4-10-10.4c-5.5,0-9.7,4.3-9.9,10v0.9c0.2,5.7,4.5,10,9.9,10C119.3,67.2,123.7,62.7,123.7,56.8z"/>
		<path class="st0" d="M130.4,56.8c0-8.1,6.2-14.5,14.4-14.5c4,0,7.3,1.5,9.4,3.5c0.5,0.4,0.8,1,0.8,1.7c0,0.5-0.2,1-0.7,1.6
			l-9.7,11.6c-0.4,0.5-0.9,0.7-1.5,0.7c-1.2,0-2.1-0.8-2.1-2c0-0.5,0.1-1,0.5-1.4l8.5-10c-1.4-1.2-3.4-1.7-5.2-1.7
			c-5.6,0-10,4.6-10,10.4c0,5.8,4.4,10.4,10,10.4c3.1,0,5.6-1.4,7.3-3.3c0.6-0.5,1.1-1,1.9-1c1.3,0,2.2,0.9,2.2,2.1
			c0,0.4-0.3,1-0.7,1.5c-2.3,2.7-6.1,4.7-10.6,4.7C136.7,71.2,130.4,64.8,130.4,56.8z"/>
		<path class="st0" d="M181.2,66.9c-2.6,2.7-6.1,4.4-10.2,4.4c-8,0-14.1-6.4-14.1-14.5c0-8.1,6.1-14.5,14.1-14.5
			c4.1,0,7.6,1.7,10.2,4.4v-2.1c0-1.2,1-2.2,2.2-2.2c1.3,0,2.2,1,2.2,2.2v24.3c0,1.3-0.9,2.2-2.2,2.2c-1.2,0-2.2-1-2.2-2.2V66.9z
			 M181.2,57.2v-0.9c-0.2-5.7-4.5-10-9.9-10c-5.6,0-10,4.5-10,10.4c0,5.9,4.4,10.4,10,10.4C176.6,67.2,181,62.9,181.2,57.2z"/>
		<path class="st0" d="M189.8,52.9c0-6.8,4.5-10.6,10-10.6c3.5,0,6.3,1.3,7.9,4c1.5-2.7,4.6-4,7.9-4c5.6,0,10.1,3.8,10.1,10.6v16
			c0,1.3-1,2.2-2.2,2.2c-1.3,0-2.2-1-2.2-2.2v-16c0-4.3-2.5-6.5-5.7-6.5c-3.2,0-5.7,2.2-5.7,6.5v16c0,1.3-1,2.2-2.2,2.2
			c-1.3,0-2.2-1-2.2-2.2v-16c0-4.3-2.5-6.5-5.7-6.5c-3.2,0-5.7,2.2-5.7,6.5v16c0,1.3-1,2.2-2.2,2.2c-1.3,0-2.2-1-2.2-2.2V52.9z"/>
		<path class="st0" d="M229.9,52.9c0-6.8,4.5-10.6,10-10.6c3.5,0,6.3,1.3,7.9,4c1.5-2.7,4.6-4,7.9-4c5.6,0,10.1,3.8,10.1,10.6v16
			c0,1.3-1,2.2-2.2,2.2c-1.3,0-2.2-1-2.2-2.2v-16c0-4.3-2.5-6.5-5.7-6.5c-3.2,0-5.7,2.2-5.7,6.5v16c0,1.3-1,2.2-2.2,2.2
			c-1.3,0-2.2-1-2.2-2.2v-16c0-4.3-2.5-6.5-5.7-6.5c-3.2,0-5.7,2.2-5.7,6.5v16c0,1.3-1,2.2-2.2,2.2c-1.3,0-2.2-1-2.2-2.2V52.9z"/>
	</g>
	<g>
		<g>
			<path class="st0" d="M266.1,82.7c0-0.2-0.1-0.3-0.2-0.4c-0.1-0.1-0.3-0.2-0.4-0.2c-0.2,0-0.4,0.1-0.5,0.3l-2.2,3.2l-2.3-3.2
				c-0.1-0.2-0.3-0.3-0.5-0.3c-0.2,0-0.3,0.1-0.4,0.2c-0.1,0.1-0.2,0.3-0.2,0.4c0,0.1,0.1,0.3,0.2,0.4l2.7,3.6v3.5
				c0,0.2,0.1,0.3,0.2,0.4c0.1,0.1,0.3,0.2,0.4,0.2c0.2,0,0.3-0.1,0.4-0.2c0.1-0.1,0.2-0.3,0.2-0.4v-3.4l2.7-3.8
				C266.1,82.9,266.1,82.8,266.1,82.7 M252.5,89.7H250v-2.8h2.4c1,0,1.6,0.5,1.6,1.4c0,0.5-0.1,0.8-0.4,1.1
				C253.3,89.6,253,89.7,252.5,89.7 M253.5,84.5c0,0.4-0.1,0.7-0.3,0.9c-0.2,0.2-0.5,0.3-0.8,0.3H250v-2.4h2.3
				c0.4,0,0.7,0.1,0.9,0.3C253.4,83.8,253.5,84.1,253.5,84.5 M253.7,86.1c0.4-0.2,0.6-0.4,0.8-0.7c0.2-0.3,0.3-0.7,0.3-1.1
				c0-0.7-0.2-1.2-0.6-1.6s-1-0.6-1.7-0.6h-3.2c-0.2,0-0.3,0.1-0.4,0.2s-0.2,0.3-0.2,0.4v7.5c0,0.2,0.1,0.3,0.2,0.4
				c0.1,0.1,0.3,0.2,0.4,0.2h3.2c0.8,0,1.4-0.2,2-0.6c0.5-0.4,0.8-1,0.8-2c0-0.6-0.1-1-0.4-1.4C254.5,86.5,254.2,86.2,253.7,86.1
				 M233.1,89.7h-2.3v-6.4h2.3c0.8,0,1.5,0.3,1.9,0.9c0.4,0.6,0.6,1.4,0.6,2.3c0,0.9-0.2,1.7-0.6,2.3
				C234.5,89.4,233.9,89.7,233.1,89.7 M233.2,82.1h-3.1c-0.2,0-0.3,0.1-0.4,0.2c-0.1,0.1-0.2,0.3-0.2,0.4v7.5c0,0.2,0.1,0.3,0.2,0.4
				c0.1,0.1,0.3,0.2,0.4,0.2h3.1c0.8,0,1.4-0.2,2-0.6c0.6-0.4,1-0.9,1.3-1.6c0.3-0.7,0.4-1.4,0.4-2.2c0-0.8-0.1-1.5-0.4-2.2
				c-0.3-0.7-0.7-1.2-1.3-1.6C234.6,82.3,234,82.1,233.2,82.1 M223.8,89.7h-3.7v-2.7h3.1c0.2,0,0.3,0,0.4-0.1
				c0.1-0.1,0.2-0.2,0.2-0.4c0-0.2-0.1-0.3-0.2-0.4c-0.1-0.1-0.3-0.2-0.4-0.2h-3.1v-2.5h3.7c0.2,0,0.3-0.1,0.4-0.2
				c0.1-0.1,0.2-0.2,0.2-0.4c0-0.2-0.1-0.3-0.2-0.4c-0.1-0.1-0.3-0.2-0.4-0.2h-4.3c-0.2,0-0.3,0.1-0.4,0.2c-0.1,0.1-0.2,0.3-0.2,0.4
				v7.5c0,0.2,0.1,0.3,0.2,0.4c0.1,0.1,0.3,0.2,0.4,0.2h4.3c0.2,0,0.3-0.1,0.4-0.2c0.1-0.1,0.2-0.2,0.2-0.4c0-0.2-0.1-0.3-0.2-0.4
				C224.1,89.7,224,89.7,223.8,89.7 M210.9,86.4h-2.8v-3.1h2.8c0.3,0,0.6,0.1,0.9,0.4c0.2,0.3,0.4,0.6,0.4,1c0,0.3-0.1,0.6-0.2,0.8
				c-0.1,0.3-0.3,0.5-0.5,0.6C211.3,86.3,211.1,86.4,210.9,86.4 M213.5,89.8c-0.1-0.1-0.2-0.2-0.3-0.4c0-0.2-0.1-0.5-0.1-1
				c0-0.4-0.1-0.7-0.3-1c-0.2-0.3-0.4-0.5-0.7-0.7c0.4-0.2,0.7-0.5,1-0.9s0.4-0.8,0.4-1.3c0-0.5-0.1-0.9-0.3-1.3
				c-0.2-0.4-0.5-0.7-0.9-0.9c-0.4-0.2-0.8-0.3-1.2-0.3h-3.5c-0.2,0-0.3,0.1-0.4,0.2c-0.1,0.1-0.2,0.3-0.2,0.4v7.5
				c0,0.2,0.1,0.3,0.2,0.4c0.1,0.1,0.3,0.2,0.5,0.2c0.2,0,0.3-0.1,0.4-0.2c0.1-0.1,0.1-0.3,0.1-0.4v-2.8h2.5c0.4,0,0.7,0.1,1,0.3
				c0.2,0.2,0.4,0.5,0.4,0.9c0,0.6,0.1,1.1,0.2,1.4c0.2,0.3,0.4,0.5,0.6,0.7c0.1,0.1,0.2,0.1,0.4,0.1c0.2,0,0.3,0,0.4-0.1
				c0.1-0.1,0.2-0.2,0.2-0.4c0-0.1,0-0.2-0.1-0.3C213.6,90,213.5,89.9,213.5,89.8 M201.1,89.7h-3.7v-2.7h3.1c0.2,0,0.3,0,0.4-0.1
				c0.1-0.1,0.2-0.2,0.2-0.4c0-0.2-0.1-0.3-0.2-0.4c-0.1-0.1-0.3-0.2-0.4-0.2h-3.1v-2.5h3.7c0.2,0,0.3-0.1,0.4-0.2
				c0.1-0.1,0.2-0.2,0.2-0.4c0-0.2-0.1-0.3-0.2-0.4c-0.1-0.1-0.3-0.2-0.4-0.2h-4.3c-0.2,0-0.3,0.1-0.4,0.2c-0.1,0.1-0.2,0.3-0.2,0.4
				v7.5c0,0.2,0.1,0.3,0.2,0.4c0.1,0.1,0.3,0.2,0.4,0.2h4.3c0.2,0,0.3-0.1,0.4-0.2c0.1-0.1,0.2-0.2,0.2-0.4c0-0.2-0.1-0.3-0.2-0.4
				C201.4,89.7,201.3,89.7,201.1,89.7 M190.6,82.1c-0.1,0-0.3,0-0.4,0.1s-0.2,0.2-0.2,0.3l-2.1,6.2l-1.7-4.4c0-0.1-0.1-0.2-0.2-0.3
				s-0.2-0.1-0.3-0.1s-0.2,0-0.3,0.1s-0.2,0.2-0.2,0.3l-1.8,4.4l-2.1-6.2c0-0.1-0.1-0.2-0.2-0.3c-0.1-0.1-0.2-0.1-0.4-0.1
				c-0.2,0-0.3,0.1-0.4,0.2c-0.1,0.1-0.2,0.3-0.2,0.5c0,0.1,0,0.1,0,0.2l2.6,7.5c0,0.1,0.1,0.2,0.2,0.3c0.1,0.1,0.2,0.1,0.3,0.1
				c0.1,0,0.2,0,0.3-0.1s0.2-0.2,0.2-0.3l1.9-4.5l1.9,4.5c0,0.1,0.1,0.2,0.2,0.3c0.1,0.1,0.2,0.1,0.3,0.1c0.1,0,0.2,0,0.3-0.1
				c0.1-0.1,0.2-0.2,0.2-0.3l2.6-7.5c0-0.1,0-0.1,0-0.2c0-0.2-0.1-0.3-0.2-0.5C190.9,82.1,190.8,82.1,190.6,82.1 M174.4,86.5
				c0,0.6-0.1,1.2-0.4,1.7c-0.2,0.5-0.6,0.9-1,1.2c-0.4,0.3-0.9,0.4-1.5,0.4s-1.1-0.1-1.5-0.4c-0.4-0.3-0.8-0.7-1-1.2
				s-0.4-1.1-0.4-1.7c0-0.6,0.1-1.2,0.4-1.7s0.6-0.9,1-1.2c0.4-0.3,0.9-0.4,1.5-0.4s1.1,0.1,1.5,0.4c0.4,0.3,0.8,0.7,1,1.2
				C174.2,85.3,174.4,85.9,174.4,86.5 M175.6,86.5c0-0.8-0.2-1.6-0.5-2.3c-0.4-0.7-0.9-1.2-1.5-1.6c-0.6-0.4-1.4-0.6-2.2-0.6
				c-0.8,0-1.5,0.2-2.2,0.6c-0.6,0.4-1.1,0.9-1.5,1.6c-0.4,0.7-0.5,1.4-0.5,2.3s0.2,1.6,0.5,2.3c0.4,0.7,0.9,1.2,1.5,1.6
				c0.6,0.4,1.4,0.6,2.2,0.6c0.8,0,1.5-0.2,2.2-0.6s1.1-0.9,1.5-1.6C175.5,88.1,175.6,87.3,175.6,86.5 M160.2,86.3h-2.3v-3.1h2.3
				c0.3,0,0.6,0.1,0.9,0.4c0.2,0.3,0.4,0.7,0.4,1.1c0,0.3-0.1,0.5-0.2,0.8s-0.3,0.4-0.5,0.6C160.6,86.3,160.4,86.3,160.2,86.3
				 M160.2,82.1h-2.9c-0.2,0-0.3,0.1-0.4,0.2s-0.2,0.3-0.2,0.4v7.5c0,0.2,0.1,0.3,0.2,0.4c0.1,0.1,0.2,0.2,0.4,0.2
				c0.2,0,0.3-0.1,0.4-0.2c0.1-0.1,0.2-0.3,0.2-0.4v-2.7h2.3c0.4,0,0.8-0.1,1.2-0.4c0.4-0.2,0.7-0.6,0.9-1c0.2-0.4,0.3-0.9,0.3-1.4
				s-0.1-0.9-0.3-1.3c-0.2-0.4-0.5-0.7-0.9-1C161,82.2,160.6,82.1,160.2,82.1"/>
		</g>
	</g>
</g>
</svg>
