<?xml version="1.0" encoding="utf-8"?>
<!-- Generator: Adobe Illustrator 26.0.3, SVG Export Plug-In . SVG Version: 6.00 Build 0)  -->
<svg version="1.1" id="Cape_logo" xmlns="http://www.w3.org/2000/svg" xmlns:xlink="http://www.w3.org/1999/xlink" x="0px" y="0px"
	 viewBox="0 0 542.3 198.1" style="enable-background:new 0 0 542.3 198.1;" xml:space="preserve">
<style type="text/css">
	.st0{fill:#FFFFFF;}
</style>
<path id="Cape" class="st0" d="M427.2,73.2c0,12.6-3.3,23.5-10,32.2c-9.5,0.8-19.6,1.4-30.3,1.4c-1.2,0-2.3,0-3.5,0
	c12.3-5.9,19.4-18.8,19.4-33.5c0-21.3-17.6-34.6-43.2-34.6h-13.6v65.8c-8.8-1-17.3-2.1-25.4-3.3V18.3h32.9
	C403.1,18.3,427.2,40.9,427.2,73.2z M471,38.6h56.2V18.3h-81.3v83.4c9.5-1.6,17.9-3.5,25.1-5.4V38.6z M225.4,14h-2.8l-22.5,47.1
	c6.2,3.4,12.5,6.6,18.9,9.6l4.9-10.7l7.6,16.4c9.3,4,18.9,7.6,28.9,10.8L225.4,14z M320.8,173.9h25.1v-31.1
	c-8.6-0.9-16.9-1.9-25.1-3.2V173.9z M471,153.3v-18.4c-7.4,1.5-15.9,3.1-25.1,4.5v34.4h96.4v-20.6H471z M253.8,124.8l7,16.7
	l15.3,32.4h25.9L282,132.3C272.4,130.1,263,127.6,253.8,124.8z M81.1,154.8c-31.4,0-55.2-22.3-55.2-59.5c0-37.4,25.1-58.5,55.7-58.5
	c26.1,0,49.7,17.1,49.7,17.1l2-22.6c0,0-21.6-15.1-52.2-15.1C34.9,16.3,0,45.6,0,95.8c0,50.2,34.9,80.1,81.1,80.1
	c19.3,0,38.7-4.5,57.2-16.8L128,138.8C128,138.8,110.9,154.8,81.1,154.8z M146.1,173.9h26.4l15.1-32.4l8.3-19.8l7.2-15.9
	c-6.6-3-13.2-6.1-19.8-9.5L146.1,173.9z"/>
<path id="Swoosh" class="st0" d="M381.4,134.7c68.7,0,132.3-20.9,134.7-21.9V91.6c-0.6,0.3-52.9,25.2-129.2,25.2
	c-10.3,0-21.1-0.5-32.3-1.5c-93.4-8.7-144.9-33.7-203.1-72l-1.9,22.6c63.7,39.5,124.6,60.1,203.1,67.5
	C362.3,134.3,371.9,134.7,381.4,134.7z"/>
</svg>
