<?xml version="1.0" encoding="utf-8"?>
<!-- Generator: Adobe Illustrator 26.0.3, SVG Export Plug-In . SVG Version: 6.00 Build 0)  -->
<svg version="1.1" id="Laag_1" xmlns="http://www.w3.org/2000/svg" xmlns:xlink="http://www.w3.org/1999/xlink" x="0px" y="0px"
	 viewBox="0 0 298.9 122.1" style="enable-background:new 0 0 298.9 122.1;" xml:space="preserve">
<style type="text/css">
	.st0{fill:#FFFFFF;}
</style>
<path class="st0" d="M61.1,78.3c-0.1,0.6-0.3,1.3-0.4,1.9c-0.3,1.5-1,2-2.9,1.9c-1.7-0.1-2.3-0.6-2.5-2.1c0-0.3,0-0.6,0-0.8
	c0-8.8,0-17.6,0-26.5c0-1.2-0.1-2.4,1.2-3c1.6-0.6,3.2-0.7,4.7,0.2c0.4,0.3,0.7,1.1,0.7,1.7c0.1,2.8,0,5.5,0,8.3c0,0.4,0,0.8,0,1.5
	c0.5-0.3,0.7-0.5,1-0.7c5.6-5.2,13.6-3,15.5,4.3c1.1,4.4,1,8.8-1.3,12.9c-2.8,4.9-8.6,5.5-12.6,3.5C63.2,80.8,62.3,79.5,61.1,78.3z
	 M72.6,70.3c-0.1,0-0.2,0-0.3-0.1c0-0.6,0-1.2,0-1.8c-0.2-2.5-1.7-4.2-3.8-4.5c-3-0.4-5.3,0.6-6.1,3c-0.9,2.6-0.9,5.2,0.2,7.7
	c0.8,1.9,2.3,3,4.4,3s3.8-0.9,4.6-2.8C72,73.3,72.2,71.7,72.6,70.3z"/>
<path class="st0" d="M183.6,71.2c-2.2,0-4.3,0-6.5,0c-0.9,0-1.2,0.4-1.2,1.2c0.1,2.6,2.2,4.8,4.9,5.1c2.4,0.2,4.5-0.2,6.1-2.3
	c0.2-0.3,0.5-0.5,0.8-0.7c0.9-0.7,2.3-0.8,3.1-0.2c1,0.7,1.3,1.8,0.8,2.8c-0.5,1.1-1.1,2.2-1.9,2.9c-3.6,3.3-12.8,3.9-16.9-0.8
	c-2.5-2.9-3.2-6.3-3.1-9.9c0-1.1,0.2-2.2,0.5-3.2c1.3-4.6,4.8-7.5,9.7-7.9c2.5-0.2,5,0,7.4,1c4.6,2,5.6,6.4,5,10.2
	c-0.2,1.2-1.1,1.7-2.3,1.7C187.9,71.2,185.7,71.2,183.6,71.2z M181.4,67.9c1.3,0,2.6-0.1,3.8,0c1.9,0.1,2-1,1.4-2.3
	c-1.1-2.3-3.2-2.6-5.5-2.5c-2.1,0.1-3.8,0.8-4.8,2.8c-0.1,0.2-0.1,0.4-0.2,0.6c-0.3,0.9,0.1,1.4,1,1.4
	C178.6,67.9,180,67.9,181.4,67.9z"/>
<path class="st0" d="M113.8,78.2c-0.2,0.4-0.4,0.7-0.6,1.1c-1.7,3-4.5,3.7-7.6,3.5s-5.4-1.8-6.3-4.9c-0.4-1.5-0.7-3.1-0.7-4.7
	c-0.1-4,0-8,0-12c0-1.6,0.4-2.1,2-2.4c0.3-0.1,0.6-0.1,0.8-0.1c3.3-0.1,3.8,0.5,3.7,3.8c-0.1,3.7,0,7.4,0.2,11.1
	c0.1,2.2,1.5,3.4,3.3,3.5c2.2,0.2,3.8-0.7,4.4-2.8c0.4-1.3,0.6-2.8,0.7-4.2c0.1-3,0-5.9,0-8.9c0-1.6,0.6-2.3,2.2-2.3
	c4.6-0.2,4.5,0.5,4.5,4.1c-0.1,5.6-0.1,11.2-0.2,16.8c0,1.4-0.6,2.2-1.8,2.4c-1.9,0.3-3.2-0.2-3.6-1.5c-0.3-0.7-0.4-1.5-0.6-2.3
	C114.1,78.2,114,78.2,113.8,78.2z"/>
<path class="st0" d="M96.5,22.2c0.4-0.6,0.7-0.8,0.9-1.1c1.9-3.2,5.2-3.8,8.7-3.2c3.3,0.6,5.5,3,5.9,6.5c0.3,2.9,0.3,5.8,0.4,8.7
	c0.1,1.8,0.1,3.6,0.1,5.4c0,2.6-0.2,2.8-2.8,3.1c-0.2,0-0.5,0.1-0.7,0.1c-3.1-0.1-3.2-0.3-3.1-3.4c0-3.2,0-6.5,0-9.7
	c0-0.7,0-1.4-0.2-2c-0.4-2.1-1.4-3-3.2-3.3c-1.8-0.3-3.6,0.5-4.4,2.2c-0.5,1.2-0.9,2.5-0.9,3.8c-0.1,3.4,0,6.7,0,10.1
	c0,1.7-0.3,2.1-2,2.3c-0.2,0-0.3,0-0.5,0c-3.5,0.2-4-0.3-4-3.8c0-5.8,0.1-11.6,0.1-17.4c0-1.5,0.5-2.1,1.8-2.2
	c1.9-0.3,2.8,0.2,3.3,1.6C96,20.6,96.2,21.2,96.5,22.2z"/>
<path class="st0" d="M71.3,22.2c0.4-0.6,0.7-0.8,0.9-1.1c2-3.2,5.2-3.7,8.7-3.1c3.3,0.6,5.4,2.8,6,6.2c0.2,1.4,0.3,2.8,0.3,4.2
	c0.1,3.4,0.1,6.8,0.2,10.2c0,2.7-0.2,2.9-2.9,3.2c-0.2,0-0.5,0.1-0.7,0.1c-3-0.2-3.1-0.3-3.1-3.3c0-3.6,0.2-7.2,0-10.8
	c-0.1-3-1.4-4.2-3.6-4.3c-2.4-0.1-4.4,1.5-4.8,4.1C72,29,72,30.6,72,32.2c0,2.5,0,5,0,7.4c0,1.2-0.5,1.9-1.7,2
	c-0.1,0-0.2,0.1-0.4,0.1c-4.4,0.2-4.6-0.4-4.5-4c0.2-5.6,0.1-11.2,0.1-16.8c0-1.8,0.4-2.4,1.8-2.6c2.1-0.3,3,0.3,3.4,2.1
	C70.9,20.9,71.1,21.4,71.3,22.2z"/>
<path class="st0" d="M211.5,17.5c2,0.5,4.1,0.8,6.1,1.6c2,0.8,3.3,2.3,3.5,4.6c0.1,1.1-0.1,2-1.2,2.5c-1.2,0.4-2.3,0.6-3.4-0.3
	c-0.3-0.2-0.5-0.5-0.7-0.8c-1.3-2.6-4.8-3-7.1-2c-0.6,0.3-1.2,1-1.4,1.7c-0.3,1,0.1,1.9,1.1,2.2c1.5,0.5,3,0.9,4.6,1.3
	c1.8,0.5,3.6,0.8,5.3,1.5c5.1,1.8,4.2,7.8,1.3,10c-1.9,1.4-4,2-6.3,2.3c-2.9,0.3-5.8,0.2-8.4-1.1c-2.1-1-3.8-2.4-3.9-4.8
	c0-0.7,0.4-1.8,0.9-2.2c0.8-0.7,1.9-0.5,2.8,0.1c0.6,0.4,1.1,1,1.7,1.5c1.8,1.8,5.5,2.5,7.8,1.5c0.8-0.3,1.3-0.8,1.4-1.8
	c0-1-0.7-1.5-1.5-1.7c-1.9-0.5-3.9-0.8-5.8-1.2c-0.9-0.2-1.9-0.4-2.8-0.8c-2.5-1-4.2-2.7-4.4-5.5c-0.2-3,1-5.3,3.6-6.8
	c2.1-1.2,4.4-1.6,6.8-1.6C211.4,17.7,211.5,17.6,211.5,17.5z"/>
<path class="st0" d="M216.3,58.3c2.9,0,5.4,0.3,7.6,1.8c1.2,0.8,2,1.8,2.3,3.2c0.4,1.8,0,2.8-1.2,3.4c-1.6,0.7-3.1,0.3-4-1.1
	c-0.8-1.3-1.9-2.2-3.4-2.3c-1.1-0.1-2.3,0-3.4,0.2c-0.9,0.2-1.6,0.8-1.7,1.9c-0.1,1.1,0.4,2,1.4,2.3c1.9,0.6,3.9,1,5.9,1.5
	c1.3,0.3,2.5,0.7,3.8,1.1c5.1,1.9,4.2,7.9,1.4,10c-2.1,1.6-4.5,2.2-7,2.4c-2.9,0.2-5.7,0-8.3-1.4c-1.5-0.8-2.7-1.9-3.3-3.5
	c-0.5-1.4-0.2-2.7,0.6-3.3c0.9-0.6,2.7-0.4,3.6,0.6c1.8,2,4,3,6.7,2.9c0.8,0,1.7-0.1,2.4-0.6c0.5-0.3,1-1.1,1.1-1.7
	c0-0.5-0.6-1.3-1.1-1.4c-1.9-0.6-3.9-0.9-5.8-1.3c-1.1-0.3-2.2-0.5-3.2-0.9c-2.5-0.9-3.9-2.7-4.2-5.3c-0.2-2.7,0.7-4.9,2.9-6.4
	C211.2,58.9,213.4,58.3,216.3,58.3z"/>
<path class="st0" d="M283.1,80.3c-2.6-0.3-4.9-0.7-7.3-0.9c-3-0.2-5.6,0.7-7.9,2.7c-0.4,0.3-1,0.4-1.5,0.5c-0.1-0.6-0.5-1.2-0.4-1.7
	c2.1-7.2,6.3-12.8,13-16.4c3.2-1.7,6.5-1.9,9.7,0c3.2,2,4.3,5.1,3.7,8.7c-0.6,3.5-3,5.5-6.2,6.6C285.1,80.2,284,80.2,283.1,80.3z"/>
<path class="st0" d="M245.9,63.3c1.9,0,4,0.8,6,2.1C257.2,69,261,73.9,263,80c0.1,0.5,0.3,0.9,0.3,1.4c0,0.4-0.2,1-0.5,1.2
	s-1,0-1.3-0.2c-3.3-3-7.1-3.4-11.3-2.6c-3.2,0.6-6.3,0.9-9.3-0.8c-3.6-2.1-5.1-5.8-3.9-9.8C238.1,65.6,241.6,63.1,245.9,63.3z"/>
<path class="st0" d="M133.9,58.3c2-0.1,4.1,0.2,6,1.2c1.7,0.8,2.9,2,3.4,3.9c0.4,1.6,0,2.7-1.2,3.3c-1.5,0.7-3.1,0.3-3.9-1
	c-0.9-1.4-2-2.4-3.6-2.5c-1.1-0.1-2.2,0-3.3,0.2c-1,0.2-1.7,0.9-1.8,2c-0.1,1.1,0.5,1.9,1.5,2.2c1.5,0.5,3.1,0.8,4.6,1.2
	c1.5,0.4,3.1,0.7,4.6,1.2c2,0.7,3.6,1.9,3.9,4.2c0.3,2.8-0.6,5.1-3,6.5c-2.9,1.8-6.1,2-9.4,1.8c-2.1-0.1-4-0.6-5.8-1.8
	c-1.5-1-2.7-2.3-2.8-4.2c0-0.9,0-2,1-2.2c0.8-0.2,1.9-0.1,2.7,0.2c0.7,0.2,1.1,1,1.7,1.5c2.3,2.1,5,2.3,7.8,1.5
	c0.9-0.3,1.6-1,1.4-1.8c-0.2-0.6-0.9-1.4-1.5-1.6c-2.2-0.6-4.4-1-6.6-1.5c-0.7-0.2-1.4-0.4-2.2-0.7c-5.5-2-5-9.2-1.3-11.7
	C128.2,59.1,130.5,58.3,133.9,58.3z"/>
<path class="st0" d="M157,58.3c2.4-0.1,4.6,0.3,6.7,1.4c1.5,0.8,2.5,2,2.9,3.6s0,2.8-1.2,3.3c-1.5,0.7-3.1,0.3-3.9-1
	c-0.9-1.4-2-2.4-3.6-2.5c-1.1-0.1-2.2,0-3.3,0.2c-1,0.2-1.7,0.9-1.8,2c-0.1,1.1,0.5,1.9,1.5,2.2c1.9,0.6,3.9,1,5.8,1.5
	c1.3,0.4,2.7,0.7,4,1.2c3.8,1.6,4.7,6.3,1.8,9.3c-1.5,1.6-3.4,2.3-5.5,2.7c-3.4,0.6-6.7,0.6-9.9-0.8c-2-0.9-3.6-2.2-4-4.4
	c-0.2-1-0.2-2.1,0.8-2.7s2.1-0.5,3,0.2c0.3,0.2,0.6,0.5,0.9,0.8c2.2,2.5,5,2.9,8.1,2.2c1-0.2,1.7-0.8,1.8-1.8c0-1.1-0.7-1.6-1.6-1.8
	c-1.8-0.4-3.7-0.7-5.5-1.2c-1.1-0.3-2.2-0.6-3.2-0.9c-5.5-2-4.9-8.9-1.7-11.4C151.1,59.2,153.6,58.3,157,58.3z"/>
<path class="st0" d="M143,18.3c2.6,0,2.8,0.2,3.6,2.7c1.2,4.2,2.4,8.3,3.6,12.5c0,0.1,0,0.3,0.1,0.3c0.3,0.4,0.6,0.8,1,1.2
	c0.3-0.4,0.6-0.8,0.8-1.2c1.2-4.5,2.4-8.9,3.5-13.4c0.4-1.6,1-2.1,2.7-2.1c0.4,0,0.9,0,1.3,0c2.1,0,2.6,0.7,2,2.8
	c-0.9,2.7-1.7,5.4-2.6,8.1c-1.1,3.2-2.2,6.3-3.3,9.5c-1.1,3.1-3.1,3.9-6.4,3.1c-1.4-0.3-2.1-1.5-2.5-2.8c-1-2.8-1.9-5.6-2.9-8.5
	s-2-5.7-2.9-8.6c-0.2-0.5-0.3-1.1-0.4-1.6c-0.1-1.5,0.3-1.9,1.8-1.9C142.4,18.3,142.7,18.3,143,18.3z"/>
<path class="st0" d="M195.5,64.7c0-4.2,0-8.4,0-12.6c0-1.8,0.6-2.4,2.4-2.7c0.4-0.1,0.9-0.1,1.3-0.1c2.2,0.2,2.8,0.8,2.7,3
	c-0.1,7.9-0.1,15.9-0.2,23.8c0,1.5,0,1.5,1.5,1.5c1,0,1.7,0.3,1.9,1.3c0.3,1.3-0.1,2.6-1.3,3.2c-3.8,2-8.3-0.6-8.4-4.8v-0.1
	C195.5,73.1,195.5,68.9,195.5,64.7z"/>
<path class="st0" d="M264.7,51.1c3.3-3.2,8.2-2.4,10.8,0c3.2,2.9,3.7,7.6,1.1,11.2c-1,1.4-2.3,2.7-3.6,3.8c-3,2.6-5.5,5.5-7.2,9
	c-0.2,0.5-0.8,1-1.3,1c-0.3,0-0.9-0.6-1.1-1c-1.6-3.3-4-6.1-6.7-8.6c-1.7-1.6-3.4-3.3-4.7-5.2c-1.9-2.9-1.3-6.8,0.9-9.4
	c2.3-2.6,5.8-3.6,9-2.4C262.9,49.8,263.7,50.5,264.7,51.1z M264.6,55c-0.2-0.3-0.5-0.6-0.7-1c-1.8-2.6-5.1-3.3-7.7-1.6
	c-2.7,1.8-3.6,5.3-1.7,7.9c0.9,1.3,2.1,2.5,3.3,3.6c2.6,2.3,5.1,4.8,6.6,7.9c0,0,0.1,0,0.3,0.1c1.4-3.1,3.8-5.5,6.3-7.7
	c1.3-1.1,2.5-2.4,3.5-3.7c2.2-3,0.8-7.3-2.7-8.7C269,50.8,266.6,51.9,264.6,55z"/>
<path class="st0" d="M179.8,22.5c0.5-0.7,0.9-1.1,1.1-1.5c1.4-2,3.2-2.9,5.6-2.8c1.5,0.1,2.2,0.7,2.3,2.2c0,0.4,0,0.9,0,1.3
	c-0.1,1.6-0.8,2.2-2.4,2.4c-0.8,0.1-1.6,0.1-2.4,0.3c-2,0.6-3.3,2.5-3.4,5c-0.1,3,0,6-0.1,9c0,1.1,0.1,2.4-1.2,2.9
	c-1.6,0.6-3.3,0.7-4.7-0.4c-0.4-0.3-0.7-1.1-0.7-1.7c0-6.5,0.1-12.9,0.2-19.4c0-0.5,0.6-1.3,1.1-1.5c2.2-0.9,3.8,0,4.1,2.4
	C179.5,21.3,179.6,21.7,179.8,22.5z"/>
<path class="st0" d="M87.7,62.7c0.4-0.5,0.8-1.1,1.2-1.6c1.5-1.9,3.5-2.5,5.8-2.3c0.3,0,0.6,0.2,0.9,0.3c1.2,1,0.9,2.3,0.8,3.5
	c-0.1,1-0.7,1.8-1.9,1.9c-0.8,0.1-1.6,0.1-2.4,0.3c-2.2,0.5-3.7,2.1-3.8,4.6c-0.2,3.4-0.2,6.8-0.3,10.2c0,1.8-0.4,2.2-2.2,2.5
	c-0.6,0.1-1.3,0.1-1.9,0c-2-0.3-2.4-0.8-2.4-2.8c0-6.1,0.1-12.2,0.2-18.3c0-1.6,0.4-2.1,1.7-2.2c2.3-0.2,3.1,0.2,3.4,1.8
	c0.1,0.7,0.3,1.4,0.5,2C87.4,62.7,87.6,62.7,87.7,62.7z"/>
<path class="st0" d="M14.1,27.3c-0.3-0.3-0.6-0.6-0.8-0.9c-2.3-2.3-4.6-4.6-6.9-6.9c-2.1-2.1-2.2-5.3-0.2-7.4
	c1.9-2.1,5.1-2.2,7.3-0.3c0.2,0.1,0.3,0.3,0.4,0.4c3.7,3.7,7.4,7.3,11,11c2.5,2.6,2.5,5.6-0.1,8.1c-3.7,3.7-7.4,7.4-11.1,11.1
	c-2.9,2.9-7.7,1.8-8.9-2.1c-0.6-2-0.1-3.9,1.4-5.4c2.3-2.3,4.5-4.5,6.8-6.8C13.5,27.9,13.7,27.6,14.1,27.3z M17.3,27.5
	c-0.5,0.3-0.9,0.5-1.2,0.8c-2.8,2.8-5.6,5.5-8.3,8.3c-1.3,1.4-1.3,3.2,0,4.5c1.2,1.3,3.2,1.4,4.5,0.1c3.9-3.9,7.8-7.7,11.7-11.7
	c1.3-1.3,1.2-3.2-0.1-4.5c-0.5-0.6-1.1-1.1-1.6-1.6c-3.2-3.2-6.5-6.5-9.7-9.7c-0.9-0.9-2-1.3-3.3-1C8,13.1,7.2,14,7,15.3
	c-0.2,1.2,0.3,2.2,1.1,3C11,21.2,14,24.2,17.3,27.5z"/>
<path class="st0" d="M31.6,27.3c-2.6-2.6-5.1-5.1-7.6-7.6c-1.6-1.6-2.1-3.4-1.5-5.5c0.6-2.2,2.2-3.4,4.4-3.7
	c1.7-0.2,3.1,0.3,4.3,1.4c3.9,3.9,7.8,7.7,11.7,11.7c2.1,2.2,2,5.3-0.1,7.4c-3.8,3.8-7.6,7.7-11.4,11.4c-2.2,2.2-5.4,2.1-7.5,0
	s-2.1-5.3,0.1-7.5C26.4,32.5,29,30,31.6,27.3z M34.7,27.4c-0.5,0.4-0.9,0.6-1.2,0.9c-2.7,2.7-5.4,5.4-8.1,8.1
	C24,37.8,24,39.7,25.2,41c1.2,1.3,3.2,1.4,4.6,0.1c3.9-3.8,7.8-7.7,11.6-11.6c1.3-1.3,1.2-3.2,0-4.4c-3.9-3.9-7.8-7.8-11.7-11.7
	c-0.8-0.8-1.8-1.1-3-0.8c-2.5,0.7-3.2,3.6-1.4,5.5C28.4,21.2,31.4,24.2,34.7,27.4z"/>
<path class="st0" d="M197.7,30.4c0,3.1,0,6.2,0,9.4c0,1.5-0.4,1.9-1.9,2.1c-3.9,0.4-4.6-0.2-4.6-4.1c0-5.7,0.1-11.3,0.1-17
	c0-1.8,0.6-2.3,2.4-2.4c0.4,0,0.8,0,1.2,0c1.9,0.1,2.7,0.8,2.7,2.7C197.7,24.1,197.7,27.3,197.7,30.4z"/>
<path class="st0" d="M163.9,30.1c0-3.1,0-6.1,0-9.2c0-1.9,0.6-2.5,2.5-2.5c0.5,0,1,0,1.4,0c1.6,0.1,2.3,0.8,2.3,2.4
	c0.1,6.3,0.1,12.6,0.1,18.9c0,1.6-0.5,2-2.1,2.2c-3.8,0.4-4.5-0.2-4.4-4C163.8,35.2,163.8,32.7,163.9,30.1
	C163.8,30.1,163.8,30.1,163.9,30.1z"/>
<path class="st0" d="M61.7,30.2c0,3.1,0,6.1,0,9.2c0,1.9-0.4,2.3-2.3,2.4c-4.1,0.2-4.3-0.6-4.2-3.9c0.1-5.8,0.1-11.6,0.2-17.5
	c0-1.4,0.4-1.9,1.8-2.1c0.8-0.1,1.6-0.1,2.4,0c1.5,0.2,2.1,0.9,2.1,2.4C61.7,23.9,61.7,27.1,61.7,30.2L61.7,30.2z"/>
<path class="st0" d="M55.2,99.3c2-0.4,2.2-0.3,2.6,1.4c0.7,2.8,1.3,5.6,2,8.4c0.1,0.2,0.2,0.4,0.3,0.9c0.6-2.6,1-5,1.6-7.3
	c0.1-0.7,0.3-1.3,0.5-2c0.3-0.9,0.8-1.4,1.8-1.4c1,0,1.5,0.5,1.8,1.5c0.6,2.8,1.2,5.5,1.9,8.3c0,0.2,0.1,0.4,0.3,0.8
	c0.7-2.7,1.3-5.2,1.9-7.6c0.1-0.5,0.3-1,0.4-1.5c0.5-1.9,0.5-1.9,2.7-1.5c-0.1,0.4-0.1,0.8-0.2,1.2c-0.9,3.2-1.8,6.4-2.6,9.7
	c-0.4,1.6-0.8,1.9-2.3,1.9c-1.2,0-1.7-0.5-2-2.1c-0.6-2.6-1.1-5.3-2-7.9c-0.3,1.6-0.6,3.2-0.9,4.8c-0.2,1.2-0.5,2.5-0.8,3.7
	c-0.2,0.9-0.7,1.4-1.8,1.4s-1.8-0.3-2.1-1.3c-1-3.5-2-7-3-10.5C55.1,100,55.2,99.6,55.2,99.3z"/>
<path class="st0" d="M140.3,110c-1.8,2.4-4.1,2.7-6.5,2c-2.1-0.6-3.5-3-3.6-5.6c-0.1-1.9,0.1-3.8,1.3-5.5c1.9-2.8,7.1-2.8,8.8,0
	c0-0.9,0-1.6,0-2.2c0-1.2,0-2.5-0.1-3.7c0-0.8,0.3-1.2,1.1-1.1c0.9,0,1.1,0.5,1.1,1.2c0,5.4,0,10.8,0,16.2c0,0.6-0.2,0.9-0.8,0.9
	s-1.1,0-1.1-0.8C140.6,110.9,140.5,110.6,140.3,110z M140.4,105.1c-0.1-0.4-0.2-1.1-0.4-1.8c-0.5-1.6-1.7-2.5-3.2-2.6
	c-1.7-0.1-3.2,0.8-3.8,2.4c-0.6,1.5-0.7,3.1-0.1,4.7c0.8,2,2.5,2.9,4.6,2.3C139.3,109.7,140.4,107.9,140.4,105.1z"/>
<path class="st0" d="M175.9,105.5c0,3.7-1.9,6.3-5,6.8c-4.9,0.8-8.3-2.7-7.7-7.6c0.7-5,4.2-6.5,8.5-5.5
	C174.4,99.8,175.9,102.1,175.9,105.5z M173.5,105.7c-0.1-0.7-0.2-1.4-0.4-2.1c-0.5-1.7-1.7-2.6-3.4-2.6c-2,0-3.2,0.7-3.8,2.4
	c-0.2,0.7-0.4,1.6-0.4,2.3c0,2.1,1.1,3.9,2.7,4.4C171,111,173.5,109,173.5,105.7z"/>
<path class="st0" d="M81.1,105.8c-1.2,0-2.4,0-3.6,0c-0.7,0-0.9,0.2-0.8,0.9c0.1,1.6,0.8,2.7,2.3,3.4c1.5,0.7,3.3,0.3,4.4-0.9
	l0.1-0.1c0.5-0.6,1.1-1.5,1.9-0.7s0.2,1.7-0.5,2.3c-2,2-4.5,2.1-6.9,1.3c-2.4-0.7-3.4-2.7-3.6-5c-0.2-1.7-0.2-3.5,0.7-5.1
	c1.2-2.2,3.5-3.2,6.6-2.9c2.1,0.2,3.7,1.7,4.3,3.8c0.1,0.5,0.1,1,0.1,1.5c0.1,1.1-0.4,1.6-1.5,1.6C83.4,105.8,82.3,105.8,81.1,105.8
	L81.1,105.8z M80.3,104.4c0.8,0,1.7,0,2.5,0c1.1,0,1.3-0.4,1-1.4c-0.4-1.4-1.9-2.2-3.5-2.1c-1.7,0.1-3.1,1.2-3.4,2.5
	c-0.2,0.7,0.2,1,0.8,1C78.5,104.4,79.4,104.4,80.3,104.4z"/>
<path class="st0" d="M263.5,105.8c-0.4,1.7,0.3,3.2,1.6,4c1.4,0.9,3.4,0.7,4.6-0.3c0.3-0.2,0.5-0.6,0.8-0.8c0.5-0.2,1-0.4,1.5-0.5
	c0,0.6,0.3,1.3,0.1,1.7c-0.8,1.6-2.3,2.2-4,2.3c-4.6,0.4-7.1-1.9-7.1-6.6c0-0.9,0.1-1.8,0.3-2.7c0.7-2.6,2.9-4.2,5.8-4.2
	c2.8,0,4.8,1.4,5.5,3.9c0.1,0.6,0.1,1.2,0.2,1.8c0,1-0.5,1.4-1.4,1.4c-2.2,0-4.5,0-6.7,0C264.3,105.8,263.9,105.8,263.5,105.8z
	 M266.9,104.4c0.8,0,1.6,0,2.4,0c1.2,0,1.5-0.4,1.1-1.6c-0.5-1.3-1.9-2.1-3.5-2c-1.7,0.1-3.1,1.2-3.4,2.5c-0.1,0.7,0.2,1,0.8,1
	C265.2,104.4,266,104.4,266.9,104.4z"/>
<path class="st0" d="M156.4,109.6c0.2-0.4,0.4-0.7,0.5-1.1c0.8-2.8,1.6-5.5,2.4-8.3c0.3-1,1.4-1.6,2.3-1.1c0.2,0.1,0.3,0.8,0.2,1.2
	c-0.6,1.9-1.2,3.8-1.8,5.7c-0.7,2.2-1.4,4.5-2.2,6.7c-0.8,2.4-2.1,3.4-4.2,3.4c-0.7,0-1.2-0.2-1.2-1c-0.1-0.8,0.4-1.1,1.1-1.1
	c1.1-0.1,1.8-0.4,2.1-1.2c-0.6-1.2-1.2-2.1-1.6-3.1c-1.1-3-2.2-6.1-3.3-9.1c-0.2-0.5-0.7-1.3,0.2-1.6c0.8-0.2,1.7-0.4,2.1,0.9
	c0.8,2.7,1.6,5.4,2.5,8.1c0.2,0.5,0.4,1,0.6,1.5C156.2,109.6,156.3,109.6,156.4,109.6z"/>
<path class="st0" d="M111.3,110.2c-0.2,0.4-0.4,0.8-0.7,1.1c-1.5,1.4-3.4,1.4-5.2,0.8c-1.7-0.5-2.4-1.9-2.5-3.7
	c0-0.7-0.1-1.4-0.1-2.2c0-2,0-3.9,0-5.9c0-0.8,0.1-1.3,1.1-1.3s1.2,0.5,1.2,1.3c0,1.9,0,3.8,0,5.6c0,0.3,0,0.6,0,0.8
	c0.1,2.4,0.9,3.4,2.6,3.5c1.9,0.1,3.5-1.3,3.7-3.4c0.2-2.2,0.2-4.5,0.2-6.7c0-1.1,0.5-1.3,1.4-1.2c0.7,0,0.9,0.3,0.9,1
	c0,3.7,0,7.3-0.1,11c0,0.3-0.4,0.8-0.7,0.9c-0.6,0.2-1-0.1-1.1-0.7c0-0.3-0.1-0.6-0.2-0.9C111.6,110.3,111.4,110.2,111.3,110.2z"/>
<path class="st0" d="M187.2,110.3c-0.2,0.2-0.4,0.3-0.6,0.5c-1.5,1.8-3.5,1.8-5.5,1.3c-1.7-0.4-2.6-1.8-2.6-3.5
	c-0.1-2.9-0.1-5.7-0.1-8.6c0-0.8,0.4-0.9,1.1-0.9c0.7,0,1.2,0.1,1.2,0.9c0,2.1,0,4.2,0,6.2c0,0.5,0,1,0.1,1.6
	c0.1,1.2,0.5,2.2,1.9,2.5s2.5-0.1,3.4-1.2c1-1.2,1-2.6,1-4c0-1.6,0-3.2,0-4.8c0-0.8,0.2-1.3,1.1-1.3c0.9,0,1.2,0.3,1.1,1.2
	c0,3.5,0,6.9,0,10.4c0,0.5,0.2,1.2-0.7,1.3c-1,0.1-1.1-0.5-1.2-1.2C187.4,110.7,187.3,110.6,187.2,110.3z"/>
<path class="st0" d="M248.1,110.2c-1.3,1.9-3,2.3-5,2.1c-2-0.2-3.5-1.5-3.6-3.5c-0.1-2.9-0.1-5.9-0.1-8.9c0-0.8,0.5-0.8,1.1-0.9
	c0.7,0,1.1,0.2,1.1,1c0,2.1,0,4.2,0,6.2c0,0.5,0,1,0.1,1.4c0.1,1.2,0.6,2.3,1.9,2.6c1.2,0.3,2.9-0.2,3.4-1.4
	c0.5-1.2,0.8-2.6,0.9-3.9c0.2-1.5,0.1-3.1,0-4.7c0-0.9,0.2-1.3,1.2-1.3c1.1,0,1.1,0.6,1.1,1.4c0,3.4,0,6.8,0,10.2
	c0,0.6,0.3,1.3-0.8,1.4c-1,0.1-1.1-0.6-1.1-1.3C248.3,110.7,248.2,110.6,248.1,110.2z"/>
<path class="st0" d="M224.4,110.1c-1.4,2-3.1,2.5-5.1,2.3c-1.9-0.2-3.5-1.4-3.6-3.4c-0.2-3-0.1-6-0.1-9c0-0.8,0.5-0.8,1.1-0.8
	s1.1,0.1,1.1,0.9c0,2.1,0,4.2,0,6.2c0,0.5,0,1,0.1,1.6c0.1,1.2,0.6,2.2,1.9,2.6c1.2,0.3,2.9-0.2,3.4-1.4c0.5-1.1,0.8-2.5,0.9-3.7
	c0.2-1.6,0.1-3.3,0-4.9c0-0.9,0.3-1.2,1.2-1.2s1.1,0.4,1.1,1.2c0,3.5,0,7,0,10.5c0,0.6,0.1,1.2-0.8,1.3c-0.8,0-1-0.4-1.1-1.1
	C224.5,110.8,224.5,110.6,224.4,110.1z"/>
<path class="st0" d="M119.1,101.1c1.1-1.6,2.5-2.3,4.3-2.2c2.2,0.1,3.9,1.4,4,3.6c0.1,2.9,0.1,5.8,0.1,8.7c0,1-0.6,0.8-1.2,0.8
	c-0.7,0-1-0.1-1-0.9c0-2.1,0-4.2,0-6.3c0-0.4,0-0.7,0-1.1c-0.2-1.8-0.7-2.5-1.8-2.7c-1.5-0.3-3.2,0.4-3.8,1.7
	c-0.3,0.7-0.5,1.5-0.5,2.3c-0.1,2-0.1,4,0,6c0,0.9-0.4,1.1-1.1,1.1c-0.8,0-1-0.2-1-1c0-3.5,0-7,0-10.5c0-0.6-0.3-1.3,0.8-1.4
	c1-0.1,1.2,0.4,1.2,1.2C118.9,100.5,119,100.7,119.1,101.1z"/>
<path class="st0" d="M95.6,99.2c0-0.7-0.1-1.4-0.1-2.1c0-1.6,0.8-2.8,2.4-3.1c1-0.2,2.1-0.1,3.2,0.1c0.3,0.1,0.6,0.9,0.5,1.3
	c0,0.3-0.8,0.7-1.2,0.6c-2.5-0.3-3.2,0.5-2.4,3.1c0.8,0,1.6-0.1,2.4,0c0.3,0.1,0.8,0.6,0.9,1c0.2,0.6-0.2,0.9-0.9,0.9
	c-0.8,0-1.6,0-2.5,0c0,1.1,0,2.1,0,3.1c0,2.3,0,4.6,0,6.9c0,0.7-0.2,1-0.9,1c-0.7,0-1.2,0-1.2-1c0-2.8,0-5.7,0-8.5
	c0-1.2-0.2-1.7-1.5-1.6c-0.3,0-0.6-0.4-0.9-0.6c0.3-0.3,0.5-0.6,0.8-0.8C94.6,99.4,95.1,99.3,95.6,99.2z"/>
<path class="st0" d="M210.7,99.1c0.8,0,1.7-0.1,2.4,0c0.3,0.1,0.8,0.6,0.9,0.9c0.2,0.6-0.2,1-0.9,0.9c-0.8,0-1.6,0-2.5,0
	c0,0.8,0,1.4,0,2.1c0,2.6,0,5.3,0,7.9c0,0.8-0.3,1.1-1.1,1c-0.7,0-1.1-0.1-1.1-1c0-2.8,0-5.7,0-8.5c0-1.1-0.2-1.8-1.5-1.6
	c-0.3,0-0.6-0.4-0.9-0.6c0.3-0.3,0.5-0.7,0.8-0.8c0.4-0.2,1-0.3,1.5-0.4c0-0.7-0.1-1.4-0.1-2.1c0-1.7,0.8-2.8,2.4-3.1
	c1-0.2,2.1-0.1,3.2,0.1c0.3,0.1,0.6,0.9,0.6,1.3c0,0.3-0.8,0.7-1.1,0.6C210.7,95.8,210,96.5,210.7,99.1z"/>
<path class="st0" d="M232.9,99.1c1.1,0,2,0,2.9,0c0.7,0,1,0.3,1,1s-0.4,0.9-1.1,0.9c-2.9,0.1-2.9,0.1-2.9,3c0,1.4,0,2.7,0,4.1
	c0,1.6,0.7,2.1,2.2,1.7c0.6-0.2,1.2-0.3,1.5,0.5s-0.2,1.3-0.9,1.6c-2.9,1.3-5.4-0.8-5.1-4.2c0.1-1.8,0.1-3.7,0.2-5.5
	c0-0.8-0.3-1.2-1.1-1.1c-0.5,0-1.3,0.3-1.2-0.6c0-0.4,0.7-0.9,1.1-0.9c1.2-0.1,1.4-0.7,1.3-1.7c-0.1-0.5,0-1,0-1.6
	c0-0.8,0-1.5,1.1-1.5c1,0,1.1,0.6,1.1,1.4C232.9,97.1,232.9,98,232.9,99.1z"/>
<path class="st0" d="M194.5,15.9c-2.4,0-4-1.5-4-3.8c0-2.4,1.5-4,3.9-4.1c2.5,0,4.2,1.6,4.2,4.2C198.6,14.3,196.8,15.9,194.5,15.9z"
	/>
<path class="st0" d="M58.5,15.9c-2.4,0-4-1.5-4-3.8c0-2.4,1.5-4,3.9-4.1c2.5,0,4.2,1.6,4.2,4.2C62.6,14.3,60.9,15.9,58.5,15.9z"/>
<path class="st0" d="M167,15.9c-2.4,0-3.9-1.5-3.9-3.9s1.6-4,4-4c2.6,0,4.1,1.6,4,4.3C171.1,14.5,169.4,15.9,167,15.9z"/>
<path class="st0" d="M47.5,75.5c2.7,0,3.7,1,3.7,3.4s-1.5,3.6-3.9,3.6c-2.4-0.1-3.7-1.4-3.6-3.8C43.7,76.5,44.9,75.5,47.5,75.5z"/>
<path class="st0" d="M255,101.5c1.2-1.3,2.2-2.5,4.1-2.4c0.8,0.1,1.2,0.3,1.3,1.1c0,0.7-0.4,1-1.1,1.1c-2.9,0.4-4,1.6-4,4.6
	c0,1.8,0,3.5,0,5.3c0,0.9-0.5,0.9-1.1,0.9s-1.1-0.1-1-0.9c0-3.7,0-7.4,0-11.1c0-0.6,0.2-1,0.9-1s1.1,0.2,1,1
	C255,100.5,255,101,255,101.5z"/>
<path class="st0" d="M194.1,101.5c1.2-1.3,2.2-2.5,4.1-2.4c0.8,0.1,1.2,0.3,1.3,1.1c0,0.7-0.4,1-1.1,1.1c-2.9,0.4-4,1.6-4,4.6
	c0,1.8,0,3.5,0,5.3c0,0.9-0.5,0.9-1.1,0.9s-1-0.1-1-0.9c0-3.7,0-7.4,0-11.1c0-0.6,0.2-1,0.9-1s1,0.2,1,1
	C194,100.5,194.1,101,194.1,101.5z"/>
<path class="st0" d="M138.8,29.4c-0.1-0.6-0.1-1.2-0.1-1.9c-0.3-4.8-3.2-8.4-7.9-9.4c-1.8-0.3-3.7-0.4-5.5-0.3
	c-4.2,0.3-7.5,2.1-9.1,6.2c-1.2,3.1-1.4,6.3-0.6,9.6c1.7,7.4,8.7,9.5,14.4,8.2C135.7,40.6,139.1,35.7,138.8,29.4z M132.2,33.8
	c-1,2.1-2.9,3.2-5.4,3.1c-0.4,0-0.7,0-1.1-0.1c-2.4-0.4-4-2.3-4.3-4.9c0-0.6,0-1.1,0-1.6h-0.1c0.1-0.7,0.1-1.5,0.2-2.2
	c0.7-3.3,2.7-4.6,5.2-4.6c0.8,0,1.7,0.1,2.6,0.4c1,0.3,2.1,1.2,2.6,2.2C133.2,28.6,133.3,31.2,132.2,33.8z"/>
<path class="st0" d="M264.6,55c2-3.1,4.4-4.2,7.2-3.1c3.5,1.3,5,5.6,2.7,8.7c-1,1.4-2.2,2.6-3.5,3.7c-2.5,2.3-4.9,4.6-6.3,7.7
	c-0.1,0-0.3,0-0.3-0.1c-1.6-3.2-4-5.6-6.6-7.9c-1.2-1.1-2.4-2.3-3.3-3.6c-1.8-2.6-1-6.2,1.7-7.9c2.6-1.7,5.9-1,7.7,1.6
	C264.2,54.4,264.4,54.7,264.6,55z"/>
<path class="st0" d="M17.3,27.5C14,24.2,11,21.2,8,18.2c-0.8-0.8-1.4-1.8-1.1-3c0.3-1.3,1-2.2,2.3-2.6c1.3-0.4,2.3,0.1,3.3,1
	c3.2,3.2,6.5,6.5,9.7,9.7c0.5,0.5,1.1,1.1,1.6,1.6c1.3,1.4,1.4,3.2,0.1,4.5c-3.9,3.9-7.8,7.8-11.7,11.7c-1.3,1.3-3.3,1.2-4.5-0.1
	c-1.3-1.3-1.3-3.1,0-4.5c2.7-2.8,5.5-5.6,8.3-8.3C16.4,28,16.8,27.8,17.3,27.5z"/>
<path class="st0" d="M34.7,27.4c-3.3-3.3-6.3-6.3-9.3-9.3c-1.9-1.9-1.1-4.8,1.4-5.5c1.1-0.3,2.2,0,3,0.8c3.9,3.9,7.8,7.8,11.7,11.7
	c1.2,1.3,1.3,3.2,0,4.4c-3.8,3.9-7.7,7.8-11.6,11.6c-1.4,1.4-3.4,1.2-4.6-0.1c-1.3-1.3-1.2-3.2,0.2-4.6c2.7-2.7,5.4-5.4,8.1-8.1
	C33.8,28,34.2,27.8,34.7,27.4z"/>
</svg>
