<?xml version="1.0" encoding="utf-8"?>
<!-- Generator: Adobe Illustrator 26.0.3, SVG Export Plug-In . SVG Version: 6.00 Build 0)  -->
<svg version="1.1" xmlns="http://www.w3.org/2000/svg" xmlns:xlink="http://www.w3.org/1999/xlink" x="0px" y="0px"
	 viewBox="0 0 932.9 245.5" style="enable-background:new 0 0 932.9 245.5;" xml:space="preserve">
<style type="text/css">
	.st0{clip-path:url(#SVGID_00000142161432610775255490000011344023712517430694_);fill:#FFFFFF;}
	.st1{fill:none;stroke:#FFFFFF;stroke-width:3.1394;stroke-miterlimit:10;}
	.st2{fill:#FFFFFF;stroke:#FFFFFF;stroke-width:3;stroke-miterlimit:10;}
	.st3{fill:#FFFFFF;}
</style>
<g id="Laag_2">
	<g>
		<defs>
			<rect id="SVGID_1_" x="69.8" y="22.7" width="197.1" height="199.5"/>
		</defs>
		<clipPath id="SVGID_00000170255232590801431290000017710521687247509427_">
			<use xlink:href="#SVGID_1_"  style="overflow:visible;"/>
		</clipPath>
		<path style="clip-path:url(#SVGID_00000170255232590801431290000017710521687247509427_);fill:#FFFFFF;" d="M185.6,143
			c0.1-1.6-0.6-2.6-2.2-2.8c-1.5-0.2-3,0-4.5,0v5.4c0.3,0,0.6,0.1,0.9,0.1c1.2,0,2.4,0,3.5-0.1C184.8,145.3,185.6,144.4,185.6,143"
			/>
		<path style="clip-path:url(#SVGID_00000170255232590801431290000017710521687247509427_);fill:#FFFFFF;" d="M194.6,164.8
			c-3.3,0-5.6,2.4-5.6,5.8c0,3.5,2.3,5.8,5.6,5.8c3.3,0,5.6-2.4,5.6-5.8C200.3,167.2,198,164.8,194.6,164.8"/>
		<path style="clip-path:url(#SVGID_00000170255232590801431290000017710521687247509427_);fill:#FFFFFF;" d="M132.8,193.1
			c0-0.7-0.5-1.1-1.2-1.2c-0.7,0-1.4,0-2.2,0v2.6c0.8,0,1.6,0,2.4-0.2C132.4,194.2,132.8,193.8,132.8,193.1"/>
		<path style="clip-path:url(#SVGID_00000170255232590801431290000017710521687247509427_);fill:#FFFFFF;" d="M143.2,193.2
			c-0.1-0.4-0.5-1-0.9-1.1c-0.8-0.2-1.7-0.1-2.5-0.2v2.8c0.9-0.1,1.7-0.1,2.5-0.2C142.9,194.3,143.4,193.8,143.2,193.2"/>
		<path style="clip-path:url(#SVGID_00000170255232590801431290000017710521687247509427_);fill:#FFFFFF;" d="M132.1,196.7
			c-0.9-0.1-1.7-0.1-2.7-0.2v3.3c0.9-0.1,1.8-0.1,2.7-0.2c0.7-0.1,1.2-0.6,1.2-1.4C133.3,197.4,132.9,196.9,132.1,196.7"/>
		<path style="clip-path:url(#SVGID_00000170255232590801431290000017710521687247509427_);fill:#FFFFFF;" d="M117.2,172.4h4.3
			c-0.7-1.8-1.4-3.6-2.2-5.5C118.5,168.9,117.9,170.6,117.2,172.4"/>
		<path style="clip-path:url(#SVGID_00000170255232590801431290000017710521687247509427_);fill:#FFFFFF;" d="M240.6,178.6
			c-2.9,2.4-8.5,2.1-11.2-0.7c0.9-1,1.8-2,2.8-3c0.3,0.2,0.5,0.4,0.7,0.6c1.3,1,2.8,1.4,4.4,0.6c0.5-0.2,1-0.9,1.1-1.4
			c0-0.5-0.4-1.2-0.9-1.5c-0.7-0.5-1.5-0.7-2.3-1c-0.7-0.3-1.5-0.5-2.2-0.8c-3.2-1.5-4-5.1-1.8-7.8c2.4-3,8.5-3.3,11.3-0.4
			c-0.9,1-1.7,1.9-2.7,2.9c-1-0.9-2.2-1.3-3.6-1.1c-0.4,0.1-0.9,0.2-1.3,0.4c-1.1,0.6-1.1,2-0.1,2.6c0.6,0.4,1.4,0.6,2.1,0.9
			c0.7,0.3,1.5,0.5,2.3,0.8C242.9,171.2,243.6,176,240.6,178.6 M228.8,138h11.2v2.1h-8.8v5.2c1.3,0,2.6,0,3.9,0c1.1,0,2.2,0,3.4,0
			c0.7,0,1,0.2,0.9,0.9c0,0.4,0,0.8,0,1.4h-8.2v5.6h9.2v2.2h-11.7V138z M228.1,179.7h-4v-18.1h4V179.7z M221.4,173.3
			c-0.1,4-2.8,6.7-6.8,6.8c-1,0-2.1,0-3.1-0.2c-3-0.6-5.2-2.8-5.3-5.9c-0.2-4.1,0-8.2,0-12.4h4c0,0.4,0,0.8,0,1.1c0,3.3,0,6.7,0,10
			c0,2.3,1.7,3.8,3.9,3.6c1.9-0.1,3.2-1.7,3.2-3.9c0-3.2,0-6.5,0-9.7c0-0.4,0-0.8,0-1.2h4c0,0.2,0.1,0.4,0.1,0.6
			C221.5,166,221.6,169.7,221.4,173.3 M207.4,194.2c0.5,0.3,1.2,0.5,1.8,0.7c2.6,0.8,3.6,2.3,3.1,4.4c-0.5,2-2.4,3.1-4.8,2.8
			c-1.5-0.2-2.6-0.9-3.4-2.3c0.6-0.4,1.2-0.8,1.9-1.3c0.2,0.3,0.4,0.5,0.6,0.8c0.7,0.8,2,1.1,2.9,0.5c0.4-0.3,0.7-0.8,0.8-1.3
			c0-0.4-0.4-0.9-0.7-1.1c-0.6-0.3-1.2-0.5-1.9-0.7c-1.6-0.6-2.9-1.4-3-3.3c-0.1-1.5,0.6-2.8,1.9-3.4c1.7-0.8,3.4-0.7,5,0.5
			c0.3,0.3,0.6,0.6,1,1.1c-0.7,0.5-1.2,0.9-1.8,1.3c-0.2-0.3-0.4-0.5-0.7-0.7c-0.7-0.7-2-0.8-2.7-0.2
			C206.5,192.5,206.6,193.7,207.4,194.2 M201.7,201.9c-1.9,0-3.8,0-5.8,0c-0.5,0-0.8-0.1-0.8-0.7c0-3.7,0-7.4,0-11.1
			c0-0.1,0-0.2,0.1-0.3h7.7v2h-5.5v2.7h5.2v2.1h-5.1v3.1h5.7c0.1,0.2,0.1,0.2,0.1,0.3C203.5,201.8,203.4,201.9,201.7,201.9
			 M185.5,174.4c-1.5-4-0.4-8.5,2.5-11c4.5-3.9,14.3-3.1,16.2,4.7c1.4,6.1-2,12.1-9.5,12.1C190.3,180.3,186.9,178.1,185.5,174.4
			 M194,201.8h-7.2v-12h2.1v10h5.1V201.8z M185.6,201.8h-7.1v-12h2.1v10h5V201.8z M176.7,201.8h-8v-12h7.7c0,0.1,0.1,0.2,0.1,0.4
			c0.1,1.7,0.1,1.7-1.6,1.7c-1.3,0-2.7,0-4.1,0v2.7h2.5h2.8c0,0.5,0,0.9,0,1.4c0,0.6-0.2,0.8-0.8,0.8c-1.5,0-2.9,0-4.5,0v3.1h5.8
			V201.8z M166.4,175.2v-4.6c1.4,0,2.6,0,3.8,0c0.5,0,0.7,0.2,0.7,0.7c0,1.1,0,2.1,0,3.2c0,0.2-0.3,0.7-0.5,0.7
			C169.1,175.3,167.8,175.2,166.4,175.2 M164.7,200.7c-0.7-1-1.4-2-2.2-3.1c0,0-0.1-0.1-0.2-0.2c-0.7,1-1.5,2-2.1,3
			c-0.8,1.6-2,1.5-3.6,1.3c1.2-1.7,2.3-3.2,3.4-4.8c1.1-1.5,1.1-1.5,0-3c-1-1.4-2-2.7-3.1-4.3c0.9,0,1.6,0,2.3,0
			c0.2,0,0.5,0.3,0.6,0.5c0.8,1.1,1.6,2.2,2.5,3.5c0.7-1,1.4-1.9,2-2.9c0.5-0.9,1.1-1.3,2.2-1.1c0.3,0.1,0.7,0,1.3,0
			c-1.4,2-2.7,3.9-4.1,5.8c1.5,2,2.9,4.1,4.3,6.1C166.4,202.2,165.5,201.9,164.7,200.7 M156.2,196.9c0,0.6,0,1.2-0.2,1.8
			c-0.5,2.3-2.2,3.5-4.7,3.4c-2.2-0.1-3.9-1.4-4.1-3.7c-0.2-2.8,0-5.7,0-8.6h2c0,1.6,0,3.2,0,4.8c0,1.1,0,2.2,0.1,3.3
			c0.2,1.5,1,2.2,2.3,2.1c1.3,0,2.2-0.8,2.3-2.2c0.1-1.5,0.1-3.1,0.1-4.6c0-1.1,0-2.2,0-3.3h2.1c0,0.2,0.1,0.5,0.1,0.8
			C156.3,192.7,156.3,194.8,156.2,196.9 M143.1,200.6c-0.7-1.1-1.3-2.2-2-3.3c-0.2-0.3-0.7-0.5-1-0.8c-0.1,0.1-0.2,0.1-0.3,0.2
			c0,1.4-0.1,2.7,0,4.1c0,0.9-0.4,1-1.1,1c-0.8,0-1.1-0.1-1.1-1c0.1-3.4,0-6.7,0-10.1c0-0.3,0-0.6,0.1-1.1c1.8,0.1,3.7,0.1,5.4,0.4
			c1.4,0.2,2.2,1.3,2.4,2.7c0.2,1.7-0.4,2.8-1.8,3.5c-0.2,0.1-0.3,0.2-0.6,0.3c1.1,1.8,2.1,3.5,3.1,5.2
			C144.5,202.2,143.9,202,143.1,200.6 M136.4,161.6c1.7,0,3.4,0,5.1,0c0.2,0,0.5,0.4,0.7,0.7c2.2,3.6,4.4,7.2,6.6,10.7
			c0.2,0.3,0.3,0.5,0.7,1v-12.4h4.1v18.1c-1.6,0-3.3,0-4.9,0c-0.3,0-0.6-0.4-0.7-0.6c-2.3-3.7-4.5-7.4-6.8-11.1
			c-0.2-0.3-0.4-0.6-0.7-0.8v12.5h-4V161.6z M132.6,201.7c-1.6,0.2-3.3,0.2-4.9,0.2c-0.2,0-0.5-0.4-0.5-0.6c0-3.8,0-7.6,0-11.4
			c1.7,0,3.2-0.1,4.7,0c3,0.3,4,3,2.3,5.5c0.3,0.5,0.8,0.9,1,1.4C136.2,198.9,135,201.3,132.6,201.7 M124.8,179.8
			c-0.2,0-0.5-0.3-0.6-0.5c-0.4-0.9-0.7-1.8-1.1-2.7c-0.1-0.3-0.6-0.6-0.9-0.6c-1.9-0.1-3.8,0-5.7,0c-0.6,0-0.8,0.2-1,0.7
			c-0.3,0.9-0.6,1.8-1,2.6c-0.1,0.3-0.5,0.5-0.7,0.5c-1.2,0.1-2.5,0-4,0c0.9-2,1.7-4,2.5-5.9c1.7-3.9,3.3-7.7,5-11.6
			c0.3-0.6,0.5-0.8,1.2-0.8c2.5,0,2.5,0,3.5,2.2c2.2,5,4.4,10,6.5,15c0.1,0.3,0.2,0.6,0.4,1C127.5,179.8,126.1,179.8,124.8,179.8
			 M105.7,179.8c-3.1,1-6.8,0.3-9-1.9c0.9-1,1.8-2,2.8-3.1c1.3,1.3,2.7,2,4.4,1.6c0.9-0.2,1.7-0.6,1.8-1.6c0.1-1-0.6-1.6-1.4-1.9
			c-0.7-0.3-1.4-0.5-2.2-0.8c-0.7-0.2-1.3-0.5-2-0.8c-3-1.4-3.8-4.7-2-7.4c2.2-3.3,8.7-3.8,11.6-0.8c-0.9,1-1.7,1.9-2.7,2.9
			c-1.1-0.9-2.3-1.3-3.7-1.1c-1.1,0.2-1.9,0.8-1.9,1.6c-0.1,1,0.6,1.5,1.4,1.8c1,0.4,1.9,0.6,2.9,1c2.8,0.9,4,2.4,4,4.9
			C109.9,176.9,108.4,178.9,105.7,179.8 M98.6,138.2c0-0.1,0.1-0.1,0.1-0.2h2.3v1.1c0,3,0,6,0,9c0,0.8,0.1,1.6,0.3,2.4
			c0.6,2.1,2.1,3.2,4.3,3.1c2,0,3.5-1.3,4-3.4c0.2-0.7,0.2-1.4,0.2-2.1c0-3,0-6,0-9V138h2.2c0.1,0.1,0.1,0.1,0.1,0.2
			c0,3.9,0.1,7.8,0,11.7c-0.1,3.4-3.1,6-6.7,6c-3.6,0-6.6-2.6-6.7-6.1C98.4,145.9,98.5,142,98.6,138.2 M116.9,137.9
			c1,0,1.9-0.1,2.8,0c0.3,0,0.6,0.4,0.8,0.7c2.8,4.1,5.5,8.3,8.3,12.4c0.2,0.3,0.4,0.6,0.8,0.8v-13.9h2.4v17.5c-0.9,0-1.8,0-2.7,0
			c-0.3,0-0.5-0.4-0.7-0.7c-2.8-4.1-5.6-8.2-8.4-12.3c-0.2-0.3-0.4-0.6-0.6-0.9c-0.1,0-0.2,0-0.2,0v13.9h-2.4V137.9z M133.6,179.8
			h-3.9v-18.1h3.9V179.8z M139.5,137.9v17.5c-0.7,0-1.3,0.1-1.9,0c-0.2,0-0.5-0.5-0.5-0.7c0-1.4,0-2.8,0-4.2c0-3.8,0-7.5,0-11.3
			c0-1.3,0-1.3,1.3-1.3C138.8,137.9,139.1,137.9,139.5,137.9 M160.8,155.3V138H172v2.1h-8.8v5.2h8.2v2.3h-8.2v5.5h9.3v2.2H160.8z
			 M151.5,154.7c-0.2,0.6-0.6,0.8-1.2,0.7c-0.6-0.1-1.3,0.3-1.6-0.6c-2.1-5.4-4.2-10.9-6.3-16.3c-0.1-0.1-0.1-0.3-0.2-0.6
			c0.8,0,1.6-0.1,2.3,0c0.3,0,0.6,0.5,0.7,0.8c1.5,4.1,2.9,8.1,4.4,12.2c0.1,0.3,0.3,0.7,0.4,1.2c0.2-0.4,0.3-0.7,0.4-1
			c1.5-4,3-8,4.5-12c0.3-0.9,0.8-1.4,1.8-1.2c0.4,0.1,0.8,0,1.3,0c-0.9,2.2-1.7,4.3-2.5,6.3C154.2,147.7,152.9,151.2,151.5,154.7
			 M154.5,165.2v-3.6h14.3v3.5h-5.1v14.6h-4.1v-14.5H154.5z M182.2,149c-0.5-1-1.1-1.4-2.2-1.2c-0.3,0-0.7,0-1.1,0v7.5
			c-0.2,0.1-0.2,0.2-0.3,0.2c-2.2,0.3-2.2,0.3-2.2-2v-14.2V138c0.4,0,0.8-0.1,1.2-0.1c1.9,0,3.8,0,5.8,0c2.9,0.1,4.5,1.7,4.9,4.4
			c0.3,2.4-1.2,4.4-3.9,5.1c-0.1,0-0.2,0.1-0.3,0.1c1.6,2.6,3.2,5.2,4.9,7.9c-1,0-1.8,0.1-2.7,0c-0.3,0-0.6-0.4-0.7-0.6
			C184.4,152.9,183.3,150.9,182.2,149 M177.3,174.9v1.2h7.3v3.7h-11.3v-18.1c1.1,0,2.1,0,3.2,0c0.7,0,0.8,0.3,0.8,0.9
			C177.3,166.6,177.3,170.7,177.3,174.9 M132.5,40.6v-1.4c1.8,0.3,3.5,0.4,5.2,0.8c2.2,0.4,4.3,1.3,6.1,2.7c2.9,2.2,4.4,5.1,4.6,8.7
			c0,0.7,0,1.3,0,2c0,9.9,0,19.8,0,29.6c0,3.1,0.4,6.1,1.6,8.9c2.9,7.2,8.4,10.8,16,11.6c4.7,0.5,9.1-0.3,13.4-2.3
			c7.1-3.3,13.6-0.2,17.8,5c-2.2,2.7-4.7,4.9-7.6,6.7c-7.6,4.8-16.1,6.3-24.9,5.6c-7.3-0.6-14.1-2.9-20-7.5
			c-6.6-5.3-10.5-12.2-11.8-20.5c-0.4-2.3-0.5-4.7-0.5-7.1C132.5,69.1,132.5,54.8,132.5,40.6 M198.6,148.7c-0.7-0.4-1.5-0.6-2.3-0.9
			c-0.7-0.3-1.3-0.5-2-0.7c-2.2-1-3.2-2.7-3.1-4.9c0.1-2.1,1.5-3.8,3.7-4.4c1.6-0.5,3.3-0.5,4.9,0.1c0.9,0.3,1.6,0.9,2.6,1.5
			c-0.8,0.7-1.4,1.3-2.1,1.9c-1.3-1.4-2.8-1.8-4.6-1.3c-1.1,0.3-1.8,1.1-1.9,2.2c-0.1,1.2,0.3,2,1.5,2.6c1.1,0.5,2.2,0.8,3.3,1.2
			c2.9,1,3.9,2.5,3.7,5.2c-0.2,2.4-2,4.3-4.6,4.7c-2.7,0.4-5.1-0.1-7.1-2.3c0.7-0.6,1.3-1.1,2-1.7c1.1,1.3,2.4,2,4,1.8
			c0.9-0.1,1.8-0.5,2.5-1.1C200.4,151.4,200.1,149.5,198.6,148.7 M188.7,78c0-7.2,0-14.4,0-21.6v-1.4c1.6,0.2,3.2,0.4,4.7,0.7
			c2.4,0.4,4.6,1.3,6.5,2.7c3.1,2.2,4.7,5.3,4.8,9c0.1,6.2,0.1,12.5,0,18.7c0,3.2-0.7,6.4-1.7,9.5c-0.1,0.2-0.1,0.3-0.3,0.6
			c-4.1-4-8.6-7-14.8-6.6C189,85.7,188.7,81.8,188.7,78 M206.6,138h2.3v17.3h-2.3V138z M212,138h13.6v2.2h-5.5v15.2h-2.5v-15.2H212
			V138z M235,133.5c0.2-0.2,0.8-0.1,1.2-0.1c0.6,0,1.2,0,1.7,0c-1,1.1-2,2.3-3.1,3.3c-0.5,0.4-1.4,0.3-2,0.5
			c-0.1-0.1-0.1-0.2-0.2-0.3C233.4,135.7,234.1,134.5,235,133.5 M251.4,22.7H85.2c-8.5,0-15.4,6.9-15.4,15.4v168.6
			c0,8.5,6.9,15.4,15.4,15.4h166.2c8.5,0,15.4-6.9,15.4-15.4V38.1C266.9,29.6,260,22.7,251.4,22.7"/>
	</g>
</g>
<g id="Logo">
	<g>
		<rect x="407.2" y="86.1" class="st1" width="20.5" height="61.6"/>
	</g>
	<polygon class="st1" points="386.7,147.7 366.1,147.7 366.1,86.1 345.6,86.1 345.6,168.3 407.2,168.3 407.2,147.7 	"/>
	<rect x="366.1" y="86.1" class="st2" width="41.1" height="61.6"/>
	<g>
		<path class="st3" d="M473,149.8c-13.6,0-24.7-11.1-24.7-24.7v-39h12.3v39c0,6.8,5.5,12.3,12.3,12.3c6.8,0,12.3-5.5,12.3-12.3v-39
			h12.3v39C497.7,138.7,486.7,149.8,473,149.8z"/>
	</g>
	<g>
		<polygon class="st3" points="609.9,147.8 571.3,147.8 571.3,86.1 583.7,86.1 583.7,135.3 609.9,135.3 		"/>
	</g>
	<g>
		<g>
			<path class="st3" d="M638.2,102.3c13.1,0,23.8,10.4,23.8,23.1s-10.7,23.1-23.8,23.1s-23.8-10.4-23.8-23.1
				S625.1,102.3,638.2,102.3z M638.2,137c6.4,0,11.6-5,11.6-11.6c0-6.4-5.2-11.6-11.6-11.6c-6.4,0-11.6,5.1-11.6,11.6
				C626.5,131.9,631.8,137,638.2,137z"/>
		</g>
		<g>
			<path class="st3" d="M668.8,102.5h12v23.8c0,6.9,1.8,10.7,8.1,10.7c6.2,0,9.6-3.9,9.6-12.1v-22.3h11.9v45.1h-11.9v-5.8
				c-3.2,4.4-8.2,6.7-13.4,6.7c-13.2,0-16.4-10.5-16.4-20.2v-25.8H668.8z"/>
		</g>
		<g>
			<path class="st3" d="M716.5,102.5h11.9l7.2,19.2c2.6,6.9,4.5,14,4.5,14s2-7.1,4.5-14l7.2-19.2h11.9L746,147.6h-11.7L716.5,102.5z
				"/>
		</g>
		<g>
			<path class="st3" d="M786.2,102.3c5.1,0,10,2.4,13.4,6.8v-6.6h11.9v45.1h-11.9v-5.8c-3.2,4.4-8.2,6.7-13.4,6.7
				c-12.5,0-20.6-10.4-20.6-23.1S773.8,102.3,786.2,102.3z M789.1,137c6.3,0,10.5-4.7,10.5-11.6s-4.3-11.6-10.5-11.6
				c-6.3,0-10.7,4.7-10.7,11.6C778.4,132.2,782.8,137,789.1,137z"/>
		</g>
		<g>
			<path class="st3" d="M828.4,84.6c3.9,0,7.1,3.2,7.1,7.1c0,3.9-3.2,7-7.1,7s-7-3.2-7-7C821.4,87.7,824.6,84.6,828.4,84.6z
				 M822.4,102.5h11.9v45.1h-11.9V102.5z"/>
		</g>
		<g>
			<path class="st3" d="M844.6,102.5h11.9v6.4c3.2-4.4,8.1-6.7,13.9-6.7c12.8,0,15.8,8.7,15.8,20.9v24.5h-12v-23.1
				c0-6.9-0.8-10.7-7.6-10.7c-6.2,0-10,4.7-10,11.6v22.3h-11.9V102.5z"/>
		</g>
	</g>
	<g>
		<path class="st3" d="M539.4,149.8c-18.1,0-32.9-14.8-32.9-32.9s14.8-32.8,32.9-32.8c8.8,0,17,3.5,23.2,9.6l-8.8,8.8
			c-3.9-3.9-9-6-14.4-6c-11.3,0-20.4,9.2-20.4,20.4s9.2,20.4,20.4,20.4c5.4,0,10.6-2.1,14.4-6l8.8,8.8
			C556.3,146.4,548.2,149.8,539.4,149.8z"/>
	</g>
</g>
</svg>
